<?xml version="1.0" encoding="utf-8"?>
<!-- Generator: Adobe Illustrator 19.0.0, SVG Export Plug-In . SVG Version: 6.00 Build 0)  -->
<svg version="1.1" id="Layer_1" xmlns="http://www.w3.org/2000/svg" xmlns:xlink="http://www.w3.org/1999/xlink" x="0px" y="0px"
	 width="1400px" height="1400px" viewBox="0 0 1400 1400" enable-background="new 0 0 1400 1400" xml:space="preserve">
<g id="XMLID_1_">
	<rect id="XMLID_125_" fill-rule="evenodd" clip-rule="evenodd" fill="#C2DBF4" width="1400" height="1400"/>
	<path id="XMLID_124_" fill-rule="evenodd" clip-rule="evenodd" fill="#A1BDEF" d="M181.4,1279.9h1042.1V699.3
		c0-282.2-230.9-513.1-513.1-513.1h-15.9c-282.2,0-513.1,230.9-513.1,513.1V1279.9z"/>
	<path id="XMLID_123_" fill-rule="evenodd" clip-rule="evenodd" fill="#8CAEEB" d="M197.4,1279.9l123-132.7h168.7
		c22.7,0,38.5-48.9,63.9-48.9h280.4c30.2,0,44.2,48.9,71.5,48.9h179.7l123,134.4h-47.1l-915.9-1.6H197.4z"/>
	<rect id="XMLID_122_" x="592.9" y="219.9" fill-rule="evenodd" clip-rule="evenodd" fill="#4A4587" width="227.3" height="28.1"/>
	<rect id="XMLID_121_" x="592.9" y="261.5" fill-rule="evenodd" clip-rule="evenodd" fill="#FFF3F1" width="227.3" height="132.6"/>
	<rect id="XMLID_120_" x="607.8" y="306.5" fill-rule="evenodd" clip-rule="evenodd" fill="#DBDCDC" width="47.3" height="72.6"/>
	<rect id="XMLID_119_" x="607.8" y="287.4" fill-rule="evenodd" clip-rule="evenodd" fill="#DBDCDC" width="74.4" height="9.7"/>
	<rect id="XMLID_118_" x="607.8" y="270.3" fill-rule="evenodd" clip-rule="evenodd" fill="#FF6239" width="74.4" height="9.7"/>
	<rect id="XMLID_117_" x="666.9" y="306.5" fill-rule="evenodd" clip-rule="evenodd" fill="#DBDCDC" width="54.2" height="9.7"/>
	<rect id="XMLID_116_" x="666.9" y="322.2" fill-rule="evenodd" clip-rule="evenodd" fill="#DBDCDC" width="54.2" height="9.7"/>
	<rect id="XMLID_115_" x="666.9" y="337.9" fill-rule="evenodd" clip-rule="evenodd" fill="#DBDCDC" width="54.2" height="9.7"/>
	<rect id="XMLID_114_" x="666.9" y="353.6" fill-rule="evenodd" clip-rule="evenodd" fill="#DBDCDC" width="54.2" height="9.7"/>
	<rect id="XMLID_113_" x="666.9" y="369.4" fill-rule="evenodd" clip-rule="evenodd" fill="#DBDCDC" width="54.2" height="9.7"/>
	<rect id="XMLID_112_" x="761.1" y="271.4" fill-rule="evenodd" clip-rule="evenodd" fill="#B7DCEC" width="47.3" height="72.6"/>
	<rect id="XMLID_111_" x="742.3" y="271.4" fill-rule="evenodd" clip-rule="evenodd" fill="#DBDCDC" width="4.5" height="107.7"/>
	<path id="XMLID_110_" fill-rule="evenodd" clip-rule="evenodd" fill="#FFF3F1" d="M760.4,227.1c3.8,0,7,3.1,7,7s-3.1,7-7,7
		c-3.8,0-7-3.1-7-7S756.5,227.1,760.4,227.1"/>
	<path id="XMLID_109_" fill-rule="evenodd" clip-rule="evenodd" fill="#FFF3F1" d="M781.2,227.1c3.8,0,7,3.1,7,7s-3.1,7-7,7
		c-3.8,0-7-3.1-7-7S777.4,227.1,781.2,227.1"/>
	<path id="XMLID_108_" fill-rule="evenodd" clip-rule="evenodd" fill="#FF6239" d="M802.1,227.1c3.8,0,6.9,3.1,6.9,7s-3.1,7-6.9,7
		c-3.8,0-7-3.1-7-7S798.2,227.1,802.1,227.1"/>
	<rect id="XMLID_107_" x="911.1" y="372.9" fill-rule="evenodd" clip-rule="evenodd" fill="#4A4587" width="227.3" height="28.1"/>
	<rect id="XMLID_106_" x="911.1" y="414.5" fill-rule="evenodd" clip-rule="evenodd" fill="#FFF3F1" width="227.3" height="132.6"/>
	<rect id="XMLID_105_" x="926.1" y="459.5" fill-rule="evenodd" clip-rule="evenodd" fill="#FF6239" width="47.3" height="72.6"/>
	<rect id="XMLID_104_" x="926.1" y="440.4" fill-rule="evenodd" clip-rule="evenodd" fill="#DBDCDC" width="74.4" height="9.7"/>
	<rect id="XMLID_103_" x="926.1" y="423.3" fill-rule="evenodd" clip-rule="evenodd" fill="#DBDCDC" width="74.4" height="9.7"/>
	<rect id="XMLID_102_" x="985.1" y="459.5" fill-rule="evenodd" clip-rule="evenodd" fill="#DBDCDC" width="54.2" height="9.7"/>
	<rect id="XMLID_101_" x="985.1" y="475.2" fill-rule="evenodd" clip-rule="evenodd" fill="#DBDCDC" width="54.2" height="9.7"/>
	<rect id="XMLID_100_" x="985.1" y="490.9" fill-rule="evenodd" clip-rule="evenodd" fill="#DBDCDC" width="54.2" height="9.7"/>
	<rect id="XMLID_99_" x="985.1" y="506.6" fill-rule="evenodd" clip-rule="evenodd" fill="#DBDCDC" width="54.2" height="9.7"/>
	<rect id="XMLID_98_" x="985.1" y="522.4" fill-rule="evenodd" clip-rule="evenodd" fill="#DBDCDC" width="54.2" height="9.7"/>
	<rect id="XMLID_97_" x="1079.3" y="424.4" fill-rule="evenodd" clip-rule="evenodd" fill="#B7DCEC" width="47.3" height="72.6"/>
	<rect id="XMLID_96_" x="1060.5" y="424.4" fill-rule="evenodd" clip-rule="evenodd" fill="#DBDCDC" width="4.5" height="107.7"/>
	<path id="XMLID_95_" fill-rule="evenodd" clip-rule="evenodd" fill="#FFF3F1" d="M1078.6,380.1c3.8,0,7,3.1,7,7s-3.1,7-7,7
		s-7-3.1-7-7S1074.8,380.1,1078.6,380.1"/>
	<path id="XMLID_94_" fill-rule="evenodd" clip-rule="evenodd" fill="#FFF3F1" d="M1099.5,380.1c3.8,0,7,3.1,7,7s-3.1,7-7,7
		s-7-3.1-7-7S1095.6,380.1,1099.5,380.1"/>
	<path id="XMLID_93_" fill-rule="evenodd" clip-rule="evenodd" fill="#FF6239" d="M1120.3,380.1c3.8,0,6.9,3.1,6.9,7s-3.1,7-6.9,7
		c-3.8,0-7-3.1-7-7S1116.5,380.1,1120.3,380.1"/>
	<rect id="XMLID_92_" x="289.2" y="378.9" fill-rule="evenodd" clip-rule="evenodd" fill="#4A4587" width="227.3" height="28.1"/>
	<rect id="XMLID_91_" x="289.2" y="420.5" fill-rule="evenodd" clip-rule="evenodd" fill="#FFF3F1" width="227.3" height="132.6"/>
	<rect id="XMLID_90_" x="304.1" y="465.5" fill-rule="evenodd" clip-rule="evenodd" fill="#FF6239" width="47.3" height="72.6"/>
	<rect id="XMLID_89_" x="304.1" y="446.4" fill-rule="evenodd" clip-rule="evenodd" fill="#DBDCDC" width="74.4" height="9.7"/>
	<rect id="XMLID_88_" x="304.1" y="429.3" fill-rule="evenodd" clip-rule="evenodd" fill="#DBDCDC" width="74.4" height="9.7"/>
	<rect id="XMLID_87_" x="363.2" y="465.5" fill-rule="evenodd" clip-rule="evenodd" fill="#DBDCDC" width="54.2" height="9.7"/>
	<rect id="XMLID_86_" x="363.2" y="481.2" fill-rule="evenodd" clip-rule="evenodd" fill="#DBDCDC" width="54.2" height="9.7"/>
	<rect id="XMLID_85_" x="363.2" y="496.9" fill-rule="evenodd" clip-rule="evenodd" fill="#DBDCDC" width="54.2" height="9.7"/>
	<rect id="XMLID_84_" x="363.2" y="512.6" fill-rule="evenodd" clip-rule="evenodd" fill="#DBDCDC" width="54.2" height="9.7"/>
	<rect id="XMLID_83_" x="363.2" y="528.4" fill-rule="evenodd" clip-rule="evenodd" fill="#DBDCDC" width="54.2" height="9.7"/>
	<rect id="XMLID_82_" x="457.4" y="430.4" fill-rule="evenodd" clip-rule="evenodd" fill="#B7DCEC" width="47.3" height="72.6"/>
	<rect id="XMLID_81_" x="438.6" y="430.4" fill-rule="evenodd" clip-rule="evenodd" fill="#DBDCDC" width="4.5" height="107.7"/>
	<path id="XMLID_80_" fill-rule="evenodd" clip-rule="evenodd" fill="#FFF3F1" d="M456.7,386.1c3.8,0,7,3.1,7,7c0,3.8-3.1,6.9-7,6.9
		c-3.8,0-6.9-3.1-6.9-6.9C449.7,389.2,452.9,386.1,456.7,386.1"/>
	<path id="XMLID_79_" fill-rule="evenodd" clip-rule="evenodd" fill="#FFF3F1" d="M477.5,386.1c3.8,0,7,3.1,7,7c0,3.8-3.1,6.9-7,6.9
		c-3.8,0-7-3.1-7-6.9C470.6,389.2,473.7,386.1,477.5,386.1"/>
	<path id="XMLID_78_" fill-rule="evenodd" clip-rule="evenodd" fill="#FF6239" d="M498.4,386.1c3.8,0,7,3.1,7,7c0,3.8-3.1,6.9-7,6.9
		c-3.8,0-7-3.1-7-6.9C491.4,389.2,494.6,386.1,498.4,386.1"/>
	<rect id="XMLID_77_" x="213" y="189" fill-rule="evenodd" clip-rule="evenodd" fill="#4A4587" width="111" height="23.4"/>
	<rect id="XMLID_76_" x="213" y="223.6" fill-rule="evenodd" clip-rule="evenodd" fill="#FFF3F1" width="111" height="110.4"/>
	<rect id="XMLID_75_" x="221.5" y="261.1" fill-rule="evenodd" clip-rule="evenodd" fill="#B7DCEC" width="39.4" height="60.5"/>
	<rect id="XMLID_74_" x="221.5" y="245.2" fill-rule="evenodd" clip-rule="evenodd" fill="#DBDCDC" width="61.9" height="8.1"/>
	<rect id="XMLID_73_" x="221.5" y="231" fill-rule="evenodd" clip-rule="evenodd" fill="#DBDCDC" width="61.9" height="8.1"/>
	<rect id="XMLID_72_" x="270.7" y="261.1" fill-rule="evenodd" clip-rule="evenodd" fill="#FF6239" width="45.2" height="8.1"/>
	<rect id="XMLID_71_" x="270.7" y="274.2" fill-rule="evenodd" clip-rule="evenodd" fill="#DBDCDC" width="45.2" height="8.1"/>
	<rect id="XMLID_70_" x="270.7" y="287.3" fill-rule="evenodd" clip-rule="evenodd" fill="#DBDCDC" width="45.2" height="8.1"/>
	<rect id="XMLID_69_" x="270.7" y="300.4" fill-rule="evenodd" clip-rule="evenodd" fill="#DBDCDC" width="45.2" height="8.1"/>
	<rect id="XMLID_68_" x="270.7" y="313.5" fill-rule="evenodd" clip-rule="evenodd" fill="#DBDCDC" width="45.2" height="8.1"/>
	<path id="XMLID_67_" fill-rule="evenodd" clip-rule="evenodd" fill="#FFF3F1" d="M282.7,196.2c2.5,0,4.6,2,4.6,4.6
		c0,2.5-2,4.6-4.6,4.6s-4.6-2-4.6-4.6C278.1,198.2,280.1,196.2,282.7,196.2"/>
	<path id="XMLID_66_" fill-rule="evenodd" clip-rule="evenodd" fill="#FFF3F1" d="M296.4,196.2c2.5,0,4.6,2,4.6,4.6
		c0,2.5-2,4.6-4.6,4.6c-2.5,0-4.6-2-4.6-4.6C291.8,198.2,293.8,196.2,296.4,196.2"/>
	<path id="XMLID_65_" fill-rule="evenodd" clip-rule="evenodd" fill="#FF6239" d="M310.1,196.2c2.5,0,4.6,2,4.6,4.6
		c0,2.5-2,4.6-4.6,4.6c-2.5,0-4.6-2-4.6-4.6C305.5,198.2,307.6,196.2,310.1,196.2"/>
	<rect id="XMLID_64_" x="1135.2" y="177.9" fill-rule="evenodd" clip-rule="evenodd" fill="#4A4587" width="111" height="23.4"/>
	<rect id="XMLID_63_" x="1135.2" y="212.5" fill-rule="evenodd" clip-rule="evenodd" fill="#FFF3F1" width="111" height="110.4"/>
	<rect id="XMLID_62_" x="1143.7" y="250" fill-rule="evenodd" clip-rule="evenodd" fill="#B7DCEC" width="39.4" height="60.5"/>
	<rect id="XMLID_61_" x="1143.7" y="234.1" fill-rule="evenodd" clip-rule="evenodd" fill="#DBDCDC" width="61.9" height="8.1"/>
	<rect id="XMLID_60_" x="1143.7" y="219.9" fill-rule="evenodd" clip-rule="evenodd" fill="#DBDCDC" width="61.9" height="8.1"/>
	<rect id="XMLID_59_" x="1192.9" y="250" fill-rule="evenodd" clip-rule="evenodd" fill="#FF6239" width="45.2" height="8.1"/>
	<rect id="XMLID_58_" x="1192.9" y="263.1" fill-rule="evenodd" clip-rule="evenodd" fill="#DBDCDC" width="45.2" height="8.1"/>
	<rect id="XMLID_57_" x="1192.9" y="276.2" fill-rule="evenodd" clip-rule="evenodd" fill="#DBDCDC" width="45.2" height="8.1"/>
	<rect id="XMLID_56_" x="1192.9" y="289.3" fill-rule="evenodd" clip-rule="evenodd" fill="#DBDCDC" width="45.2" height="8.1"/>
	<rect id="XMLID_55_" x="1192.9" y="302.4" fill-rule="evenodd" clip-rule="evenodd" fill="#DBDCDC" width="45.2" height="8.1"/>
	<path id="XMLID_54_" fill-rule="evenodd" clip-rule="evenodd" fill="#DBDCDC" d="M1204.9,185.1c2.5,0,4.6,2,4.6,4.6
		c0,2.5-2,4.6-4.6,4.6c-2.5,0-4.6-2-4.6-4.6C1200.3,187.1,1202.4,185.1,1204.9,185.1"/>
	<path id="XMLID_53_" fill-rule="evenodd" clip-rule="evenodd" fill="#DBDCDC" d="M1218.6,185.1c2.5,0,4.6,2,4.6,4.6
		c0,2.5-2,4.6-4.6,4.6s-4.6-2-4.6-4.6C1214,187.1,1216.1,185.1,1218.6,185.1"/>
	<path id="XMLID_52_" fill-rule="evenodd" clip-rule="evenodd" fill="#FF6239" d="M1232.3,185.1c2.5,0,4.6,2,4.6,4.6
		c0,2.5-2,4.6-4.6,4.6c-2.5,0-4.6-2-4.6-4.6C1227.8,187.1,1229.8,185.1,1232.3,185.1"/>
	
		<polyline id="XMLID_51_" fill="none" stroke="#FFFFFF" stroke-width="2.8346" stroke-miterlimit="22.9256" stroke-dasharray="5.67,2.83" points="
		333.9,278.8 399.6,278.8 399.6,370.3 	"/>
	
		<polyline id="XMLID_50_" fill="none" stroke="#FFFFFF" stroke-width="2.8346" stroke-miterlimit="22.9256" stroke-dasharray="5.67,2.83" points="
		543.5,497.5 609.1,497.5 609.1,406.1 	"/>
	
		<polyline id="XMLID_49_" fill="none" stroke="#FFFFFF" stroke-width="2.8346" stroke-miterlimit="22.9256" stroke-dasharray="5.67,2.83" points="
		836.3,269.6 927.9,269.6 927.9,361 	"/>
	
		<polyline id="XMLID_48_" fill="none" stroke="#FFFFFF" stroke-width="2.8346" stroke-miterlimit="22.9256" stroke-dasharray="5.67,2.83" points="
		1149.7,455.5 1195.5,455.5 1195.5,337.4 	"/>
	<path id="XMLID_47_" fill-rule="evenodd" clip-rule="evenodd" fill="#FF6239" d="M664.5,580.5h73.2c44.9,0,81.6,36.7,81.6,81.6
		v190.4H585.7V659.3C585.7,616,621.2,580.5,664.5,580.5"/>
	<path id="XMLID_46_" fill-rule="evenodd" clip-rule="evenodd" fill="#EC5B37" d="M571.2,852.5h262.5c17.5,0,31.9,14.3,31.9,31.9v0
		c0,17.5-14.3,31.9-31.9,31.9H571.2c-17.5,0-31.9-14.3-31.9-31.9v0C539.4,866.8,553.7,852.5,571.2,852.5"/>
	<polygon id="XMLID_45_" fill-rule="evenodd" clip-rule="evenodd" fill="#B2C9E8" points="597.1,916.2 619,916.2 555,1145.5 
		546.8,1145.5 	"/>
	<polygon id="XMLID_44_" fill-rule="evenodd" clip-rule="evenodd" fill="#B2C9E8" points="807.8,916.2 785.9,916.2 850,1145.5 
		858.2,1145.5 	"/>
	<path id="XMLID_43_" fill-rule="evenodd" clip-rule="evenodd" fill="#4A4587" d="M698.6,548.8c-1.7,0-3.3,0.1-5,0.4l-54.4,8.2
		c-1.2,0.2-2.4,0.5-3.6,0.8c-17.3,2.9-48.4,19.2-53,40l-25,111.9h44.7l17.1-67.8V785l79.3,0l79.3,0V642.3l17.1,67.8l32.1,17.1
		l12.5-17.1l-25-111.9c-4.6-20.8-35.7-37.1-53-40c-1.2-0.3-2.4-0.6-3.6-0.8l-54.4-8.2C701.9,549,700.3,548.8,698.6,548.8"/>
	<path id="XMLID_42_" fill-rule="evenodd" clip-rule="evenodd" fill="#E8E5EC" d="M698.6,548.8c-1.7,0-3.3,0.1-5,0.4l-24.3,3.7
		v220.8h58.6V552.9l-24.3-3.7C701.9,549,700.3,548.8,698.6,548.8"/>
	<path id="XMLID_41_" fill-rule="evenodd" clip-rule="evenodd" fill="#832C44" d="M732.5,378.4c0,18.7-15.2,33.9-33.9,33.9
		c-18.7,0-33.9-15.2-33.9-33.9c0-18.7,15.2-33.9,33.9-33.9C717.3,344.4,732.5,359.6,732.5,378.4"/>
	<path id="XMLID_40_" fill-rule="evenodd" clip-rule="evenodd" fill="#FFA982" d="M679.3,482c0,25,0,50,0,75
		c0,28.7,38.5,28.7,38.5,0c0-25,0-50,0-75C717.9,453.3,679.3,453.3,679.3,482"/>
	<path id="XMLID_39_" fill-rule="evenodd" clip-rule="evenodd" fill="#EA876B" d="M679.3,458.7c0,25,0,50,0,75
		c0,28.7,38.5,28.7,38.5,0c0-25,0-50,0-75C717.9,429.9,679.3,429.9,679.3,458.7"/>
	<path id="XMLID_38_" fill-rule="evenodd" clip-rule="evenodd" fill="#FFA982" d="M758,462.5c0,43-26.6,80.8-59.4,80.8
		c-32.8,0-59.4-37.8-59.4-80.8c0-43,26.6-77.8,59.4-77.8C731.4,384.7,758,419.5,758,462.5"/>
	<path id="XMLID_37_" fill-rule="evenodd" clip-rule="evenodd" fill="#FFA982" d="M743.3,465c-1.7,7.9,3.5,15.7,11.5,17.4
		c8,1.7,15.9-3.3,17.6-11.2c1.7-7.9-3.5-15.7-11.5-17.4C752.8,452.1,745,457.1,743.3,465"/>
	<path id="XMLID_36_" fill-rule="evenodd" clip-rule="evenodd" fill="#A3434C" d="M698.6,374.5c-54.2,0-68.7,37.6-68.7,84
		c38.3,0,51.3-52.7,51.3-52.7c0,0,3.1,21.4,19.8,37.3c14.2,13.5,39.7,22.7,66.3,15.4C767.3,412.1,752.8,374.5,698.6,374.5"/>
	<path id="XMLID_35_" fill-rule="evenodd" clip-rule="evenodd" fill="#FFA982" d="M653.8,466.8c0.7,8.1-5.4,15.2-13.6,15.9
		c-8.2,0.7-15.4-5.3-16.1-13.3c-0.7-8.1,5.4-15.2,13.6-15.9C645.9,452.8,653.1,458.8,653.8,466.8"/>
	<path id="XMLID_34_" fill-rule="evenodd" clip-rule="evenodd" fill="#EA876B" d="M680.1,511.8c10.7,8,26,8,36.7,0
		c3-2.2,0.1-7.3-2.9-5c-9.2,6.9-21.5,6.9-30.8,0C680,504.5,677.1,509.6,680.1,511.8"/>
	<path id="XMLID_33_" fill-rule="evenodd" clip-rule="evenodd" fill="#832C44" d="M721.1,470.7c0,3.5,2.9,6.4,6.4,6.4
		c3.5,0,6.4-2.9,6.4-6.4c0-3.5-2.9-6.4-6.4-6.4C724,464.3,721.1,467.2,721.1,470.7"/>
	<path id="XMLID_32_" fill-rule="evenodd" clip-rule="evenodd" fill="#832C44" d="M741.3,447c-8.1-4.3-17.2-4.9-25.8-1.6
		c-2.2,0.9-1.2,4.5,1,3.6c7.7-3,15.6-2.7,22.9,1.2C741.6,451.3,743.5,448.1,741.3,447"/>
	<path id="XMLID_31_" fill-rule="evenodd" clip-rule="evenodd" fill="#832C44" d="M676.1,470.7c0,3.5-2.9,6.4-6.4,6.4
		c-3.5,0-6.4-2.9-6.4-6.4c0-3.5,2.9-6.4,6.4-6.4C673.2,464.3,676.1,467.2,676.1,470.7"/>
	<path id="XMLID_30_" fill-rule="evenodd" clip-rule="evenodd" fill="#832C44" d="M657.7,450.2c7.3-3.9,15.2-4.2,22.9-1.2
		c2.2,0.9,3.2-2.7,1-3.6c-8.6-3.4-17.6-2.7-25.8,1.6C653.7,448.1,655.6,451.3,657.7,450.2"/>
	<path id="XMLID_29_" fill-rule="evenodd" clip-rule="evenodd" fill="#EA876B" d="M706,487.9c-0.6,5.5-14.7,5.4-15.3,0
		c-0.2-2.1-3.5-2.1-3.3,0c1.1,9.8,20.7,9.8,21.8,0C709.5,485.9,706.2,485.9,706,487.9"/>
	<polygon id="XMLID_28_" fill-rule="evenodd" clip-rule="evenodd" fill="#BC6E5D" points="668.5,727.2 319,727.2 166.7,807.2 
		668.5,807.2 1238.2,807.2 1085.9,727.2 	"/>
	<rect id="XMLID_27_" x="166.7" y="807.2" fill-rule="evenodd" clip-rule="evenodd" fill="#A46051" width="1071.5" height="35.1"/>
	<rect id="XMLID_26_" x="265.9" y="842.2" fill-rule="evenodd" clip-rule="evenodd" fill="#78463C" width="47.1" height="364.8"/>
	<rect id="XMLID_25_" x="1092" y="842.2" fill-rule="evenodd" clip-rule="evenodd" fill="#78463C" width="47.1" height="364.8"/>
	<rect id="XMLID_24_" x="197.4" y="842.2" fill-rule="evenodd" clip-rule="evenodd" fill="#A46051" width="47.1" height="439.3"/>
	<rect id="XMLID_23_" x="197.4" y="842.2" fill-rule="evenodd" clip-rule="evenodd" fill="#8E5347" width="47.1" height="26.3"/>
	<rect id="XMLID_22_" x="1160.4" y="842.2" fill-rule="evenodd" clip-rule="evenodd" fill="#A46051" width="47.1" height="439.3"/>
	<rect id="XMLID_21_" x="1160.4" y="842.2" fill-rule="evenodd" clip-rule="evenodd" fill="#8E5347" width="47.1" height="26.3"/>
	<path id="XMLID_20_" fill-rule="evenodd" clip-rule="evenodd" fill="#27275B" d="M611.1,827.5h164.6c0,16-11.6,41.5-31,41.5H643.4
		C623.9,869,611.1,843.6,611.1,827.5"/>
	<path id="XMLID_19_" fill-rule="evenodd" clip-rule="evenodd" fill="#4A4587" d="M625.5,827.5H763c-1.9,12.6-11.2,28.6-25.7,28.6
		h-85C637.7,856.1,627.6,840.1,625.5,827.5"/>
	<path id="XMLID_18_" fill-rule="evenodd" clip-rule="evenodd" fill="#4A4587" d="M705.7,1118.8l-6.5-67.9c-0.2-2-1.7-5-3.2-5.7
		c-12.7-5.5-25.9-5.7-39.4,0c-1.8,0.7-3,3.8-3.2,6.1l-6.4,67.5C643.9,1149.7,708.6,1149.7,705.7,1118.8"/>
	<path id="XMLID_17_" fill-rule="evenodd" clip-rule="evenodd" fill="#FFA982" d="M664.9,827.5h34.3h45l54.4,146.6
		c8.4,22.6,76.4,51.9,64.9,69.6c-17,26-58.8,9.4-90.7-10.2c-12.9-7.9-14.5-23.8-6-41.4c-15.7-37.8-42.4-54.1-60.3-88.1l0,0
		c1.1,59.5-10.1,97.6-11,153.7c3.9,14.4,5.1,27.7,3.1,37.8c-12.9-12.4-27.7-12-41.6,0c-2.3-9.7-1.6-22.6,2.5-37.8
		C652.7,1014.3,630,874.1,664.9,827.5"/>
	<path id="XMLID_16_" fill-rule="evenodd" clip-rule="evenodd" fill="#EA876B" d="M664.9,827.5h34.3h45l30.8,83.1
		c-16.3,4.7-31.1,13.8-44.4,27.7c-8.6-10.3-17.1-21-24.2-34.5l0,0c0.2,13.4-0.1,25.8-0.9,37.5c-19.5-6.7-39.2-6.8-59.1,0.5
		C644.5,896.2,647.7,850.5,664.9,827.5"/>
	<path id="XMLID_15_" fill-rule="evenodd" clip-rule="evenodd" fill="#EA876B" d="M761.7,1015.5c-0.7-7,1-15,5.1-23.5
		c-15.7-37.8-42.4-54.1-60.3-88.1c25.9,23.1,53.1,44.8,69.6,76.3c5.9,11.3,4.8,24.3,9.7,33.9L761.7,1015.5z"/>
	<path id="XMLID_14_" fill-rule="evenodd" clip-rule="evenodd" fill="#4A4587" d="M838.6,1010.9c16.5,12.3,30.6,24,24.8,32.8
		c-17,26-58.8,9.4-90.7-10.2c-12.9-7.9-14.5-23.8-6-41.4c8.8,25.9,83.6,63.6,78.7,29C845.1,1018.3,841.6,1013.1,838.6,1010.9"/>
	<polygon id="XMLID_13_" fill-rule="evenodd" clip-rule="evenodd" fill="#4A4587" points="561.2,693.7 585.7,693.9 602.2,710.1 
		591.6,727.2 539.2,727.2 	"/>
	<polygon id="XMLID_12_" fill-rule="evenodd" clip-rule="evenodd" fill="#27275B" points="669.3,552.9 649.9,573.9 663.8,584.4 
		645.5,602.2 669.3,686.9 	"/>
	<polygon id="XMLID_11_" fill-rule="evenodd" clip-rule="evenodd" fill="#27275B" points="727.9,552.9 747.3,573.9 733.4,584.4 
		751.7,602.2 727.9,686.9 	"/>
	<path id="XMLID_10_" fill-rule="evenodd" clip-rule="evenodd" fill="#DBDCDC" d="M593.4,744.6l-72.6,28.8c-2.4,0.9-4.6,2.1-4.6,4.6
		s2.3,5.5,4.6,4.6l72.6-28.8c2.4-0.9,4.6-2.1,4.6-4.6C598,746.7,595.8,743.7,593.4,744.6"/>
	<polygon id="XMLID_135_" fill-rule="evenodd" clip-rule="evenodd" fill="#FFF3F1" points="594.4,744.5 517.5,775.3 515.8,770.8 
		507.8,750.4 504.8,742.6 526,735.7 	"/>
	<polygon id="XMLID_133_" fill-rule="evenodd" clip-rule="evenodd" fill="#4A4587" points="552.4,756.1 515.8,770.8 507.8,750.4 	
		"/>
	<path id="XMLID_8_" fill-rule="evenodd" clip-rule="evenodd" fill="#DBDCDC" d="M500,635.8L352.4,621c-7.8-0.8-23.9,8.7-22.3,20.4
		l14.7,108.5c1.5,11.4,12.1,19.9,21.9,20.7L516.2,783c7.8,0.6,15.4-6.5,14.3-14.3l-16.2-118.6C513.3,642.3,507.9,636.6,500,635.8"/>
	<path id="XMLID_7_" fill-rule="evenodd" clip-rule="evenodd" fill="#FFF3F1" d="M494.9,635.3L352.4,621
		c-7.8-0.8-23.9,8.7-22.3,20.4l14.7,108.5c1.5,11.4,12.1,19.9,21.9,20.7L515.4,783c5-2.4,8.5-7.6,7.8-13.2l-16.5-120.4
		C505.8,642.3,501.4,637,494.9,635.3"/>
	<path id="XMLID_6_" fill-rule="evenodd" clip-rule="evenodd" fill="#DBDCDC" d="M811.5,744.6l72.6,28.8c2.4,0.9,4.6,2.1,4.6,4.6
		s-2.3,5.5-4.6,4.6l-72.6-28.8c-2.4-0.9-4.6-2.1-4.6-4.6C806.9,746.7,809.2,743.7,811.5,744.6"/>
	<polygon id="XMLID_136_" fill-rule="evenodd" clip-rule="evenodd" fill="#FFF3F1" points="900.2,742.6 895.8,753.7 888.5,772.5 
		887.4,775.3 810.5,744.5 878.9,735.7 	"/>
	<polygon id="XMLID_132_" fill-rule="evenodd" clip-rule="evenodd" fill="#27275B" points="895.8,753.7 888.5,772.5 854.7,759 	"/>
	<path id="XMLID_4_" fill-rule="evenodd" clip-rule="evenodd" fill="#DBDCDC" d="M904.9,635.8l147.6-14.8
		c7.8-0.8,23.9,8.7,22.3,20.4l-14.7,108.5c-1.5,11.4-12.1,19.9-21.9,20.7L888.7,783c-7.8,0.6-15.4-6.5-14.3-14.3l16.2-118.6
		C891.7,642.3,897.1,636.6,904.9,635.8"/>
	<path id="XMLID_3_" fill-rule="evenodd" clip-rule="evenodd" fill="#FFF3F1" d="M910,635.3l142.5-14.3c7.8-0.8,23.9,8.7,22.3,20.4
		l-14.7,108.5c-1.5,11.4-12.1,19.9-21.9,20.7L889.5,783c-5-2.4-8.5-7.6-7.8-13.2l16.5-120.4C899.2,642.3,903.5,637,910,635.3"/>
	<path id="XMLID_2_" fill-rule="evenodd" clip-rule="evenodd" fill="#FFF3F1" d="M574.2,629.5h248.7c8,0,15.6,6.6,14.5,14.5
		l-16.7,123.5c-1.1,7.9-6.5,14.5-14.5,14.5h-217c-8,0-13.6-6.6-14.5-14.5l-15-123.5C558.7,636.1,566.2,629.5,574.2,629.5"/>
</g>
</svg>
