<svg xmlns="http://www.w3.org/2000/svg" width="300" height="300" viewBox="0 0 300 300" version="1.1">
	<path d="M 132 4.435 C 97.940 9.358, 71.623 22.278, 48.454 45.452 C 22.839 71.071, 8.001 102.372, 4.107 139 C 1.536 163.183, 8.722 197.641, 21.209 221 C 42.385 260.615, 76.560 286.394, 121 296.275 C 133.954 299.155, 166.931 299.387, 180.292 296.693 C 206.017 291.505, 230.456 279.113, 250.096 261.297 C 260.415 251.937, 263.985 247.968, 271.376 237.645 C 276.980 229.818, 278.079 226.479, 275.800 224.200 C 273.812 222.212, 270.303 222.822, 263.223 226.388 C 250.223 232.934, 235.642 235.998, 217.500 235.995 C 184.662 235.990, 157.414 224.963, 137.223 203.506 C 125.262 190.794, 118.360 177.530, 115.957 162.636 C 112.121 138.854, 121.639 121.621, 141.932 115.609 C 148.798 113.575, 154.196 113.572, 161.021 115.599 C 172.744 119.080, 181.064 127.017, 186.077 139.500 C 190.804 151.274, 188.694 162.663, 179.570 174.613 C 175.333 180.162, 175.116 182.796, 178.562 186.891 C 184.513 193.964, 200.187 198.812, 220.058 199.727 C 256.111 201.386, 285.252 182.345, 295.748 150.269 C 297.984 143.434, 298.295 140.756, 298.332 128 C 298.370 115.214, 298.051 112.318, 295.635 103.500 C 292.333 91.451, 285.045 75.810, 277.815 65.257 C 271.254 55.681, 255.784 39.500, 247.039 33.065 C 227.217 18.481, 205.121 9.465, 179.500 5.505 C 165.046 3.271, 143.424 2.785, 132 4.435" stroke="none" fill="black" fill-rule="evenodd"/>
</svg>